# xmcd
#
# Track frame offsets:
#   150
#   17461
#   33748
#   51768
#   72670
#   91865
#   109011
#   129996
#   150389
#   171432
#   192096
#   219126
#   236159
#   253016
#   273468
#   294223
#
# Disc length: 4143 seconds
#
# Revision: 0
# Processed by: cddbd v1.5.1PL2 Copyright (c) Steve Scherf et al.
# Submitted via: GXTranscoder 2.0.1939
#
DISCID=db102d10
DTITLE=Laura Pausini - Grandes Exitos
DYEAR=1900
DGENRE=Blues
TTITLE0=Entre Tu y Mil Mares
TTITLE1=Cuando se Ama
TTITLE2=La Soledad
TTITLE3=Escucha a Tu Corazon
TTITLE4=Amores Extranos
TTITLE5=Inolvidable
TTITLE6=Dos Enamorados
TTITLE7=Las Cosas Que Vives
TTITLE8=Se Fue
TTITLE9=Gente
TTITLE10=Lo Siento
TTITLE11=El No Esta Por Ti
TTITLE12=Carta
TTITLE13=En Ausencia de Ti
TTITLE14=Emergencia de Amor
TTITLE15=Mi Respuesta
EXTD=
EXTT0=
EXTT1=
EXTT2=
EXTT3=
EXTT4=
EXTT5=
EXTT6=
EXTT7=
EXTT8=
EXTT9=
EXTT10=
EXTT11=
EXTT12=
EXTT13=
EXTT14=
EXTT15=
PLAYORDER=
